<svg width="80" height="80" viewBox="0 0 80 80" fill="none" xmlns="http://www.w3.org/2000/svg">
<mask id="mask0_2623_5707" style="mask-type:luminance" maskUnits="userSpaceOnUse" x="17" y="0" width="46" height="60">
<path d="M17.2729 0H62.2582V59.5831H17.2729V0Z" fill="white"/>
</mask>
<g mask="url(#mask0_2623_5707)">
<mask id="mask1_2623_5707" style="mask-type:luminance" maskUnits="userSpaceOnUse" x="17" y="0" width="46" height="60">
<path fill-rule="evenodd" clip-rule="evenodd" d="M41.2986 5.34688L59.4715 23.4918C63.1876 27.2002 63.1876 33.2516 59.4715 36.9601L42.1691 54.2361L39.6709 51.7426L36.9043 48.9807L34.8965 46.9759L33.8321 48.0373L32.8887 48.9807L32.3984 49.4694L29.6768 46.7525L29.8102 46.619L32.3534 44.0806L30.9693 42.6996L40.0899 33.593C41.9472 31.7388 41.9472 28.7131 40.0899 26.8589L30.1004 16.8849L31.4829 15.5039L28.9398 12.9639L28.8063 12.8305L31.5279 10.1135L32.0182 10.6023L32.9616 11.5457L34.026 12.607L36.0339 10.6023L38.8005 7.84192L41.2986 5.34688ZM30.5023 58.6241L31.7948 57.3331L30.5023 56.0406L29.2082 57.3331L30.5023 58.6241ZM24.6572 54.8831L25.6379 53.9025L24.6572 52.9218L23.675 53.9025L24.6572 54.8831ZM26.018 58.1121L27.2438 56.8878L26.018 55.662L24.7907 56.8878L26.018 58.1121ZM21.2886 55.752L22.2025 54.8381L21.2886 53.9242L20.3731 54.8381L21.2886 55.752ZM18.522 54.1476L18.9006 53.769L18.522 53.3904L18.1434 53.769L18.522 54.1476ZM21.1986 52.6782L21.7572 52.1212L21.1986 51.5641L20.6416 52.1212L21.1986 52.6767V52.6782ZM23.8985 50.2949L24.7239 49.4694L23.8985 48.6455L23.073 49.4694L23.8985 50.2949ZM26.063 52.2313L26.9552 51.3407L26.063 50.4501L25.1693 51.3407L26.063 52.2313ZM28.6729 46.2854L30.1221 44.8378L28.6729 43.3901L27.2221 44.8378L28.6729 46.2854ZM26.8869 48.5571L27.8691 47.5764L26.8869 46.5973L25.9063 47.5764L26.8869 48.5571ZM29.2749 51.5641L30.9026 49.938L29.2749 48.3119L27.6457 49.938L29.2749 51.5641ZM28.1376 55.4401L29.5201 54.0576L28.1376 52.6767L26.7535 54.0576L28.1376 55.4401ZM30.7241 54.0576L31.8848 52.9001L30.7241 51.7426L29.5651 52.9001L30.7241 54.0576ZM33.3573 51.876L34.8065 50.4283L33.3573 48.9807L31.9065 50.4283L33.3573 51.876ZM33.9376 56.6427L35.8554 54.7264L33.9376 52.8117L32.0182 54.7264L33.9376 56.6427ZM35.4536 59.583L37.4614 57.5783L35.4536 55.5736L33.4457 57.5783L35.4536 59.583ZM38.1534 56.5309L39.4475 55.2384L38.1534 53.9475L36.8593 55.2384L38.1534 56.5309ZM34.4062 51.4741L37.1712 54.2361L39.6709 51.7426L42.436 48.9807L39.6709 46.2187L36.9043 48.9807L35.8399 50.042L34.8965 50.9854L34.4062 51.4741ZM29.6318 0.958829L30.9259 2.2498L29.6318 3.54232L28.3377 2.2498L29.6318 0.958829ZM23.7867 4.70139L24.7689 5.68048L23.7867 6.66112L22.8046 5.68048L23.7867 4.70139ZM25.1475 1.47087L26.3749 2.69512L25.1475 3.92092L23.9202 2.69512L25.1475 1.47087ZM20.4181 3.83247L21.3336 4.74484L20.4181 5.65876L19.5042 4.74484L20.4181 3.83247ZM17.6516 5.43532L18.0317 5.81392L17.6516 6.19252L17.2729 5.81392L17.6516 5.43532ZM20.3297 6.90628L20.8867 7.46177L20.3297 8.01881L19.7711 7.46177L20.3297 6.90628ZM23.028 9.2896L23.8535 10.1135L23.028 10.9374L22.2025 10.112L23.028 9.2896ZM25.1925 7.35005L26.0847 8.24224L25.1925 9.13289L24.3003 8.24224L25.1925 7.35005ZM27.8024 13.2975L29.2532 14.7452L27.8024 16.1929L26.3516 14.7452L27.8024 13.2975ZM26.018 11.0259L27.0002 12.0065L26.018 12.9856L25.0358 12.0065L26.018 11.0259ZM28.4044 8.01881L30.0337 9.64493L28.4044 11.2711L26.7768 9.64493L28.4044 8.01881ZM27.2671 4.14435L28.6496 5.52532L27.2671 6.90628L25.8846 5.52532L27.2671 4.14435ZM29.8552 5.52532L31.0143 6.68284L29.8552 7.84037L28.6946 6.68284L29.8552 5.52532ZM32.4868 7.70693L33.9376 9.15616L32.4868 10.6023L31.0376 9.15616L32.4868 7.70693ZM33.0671 2.94028L34.985 4.85656L33.0671 6.77129L31.1493 4.85656L33.0671 2.94028ZM34.5846 0.00146484L36.5925 2.00464L34.5846 4.01091L32.5768 2.00464L34.5846 0.00146484ZM37.2829 3.052L38.577 4.34452L37.2829 5.63548L35.9889 4.34452L37.2829 3.052ZM33.5357 8.1088L36.3023 5.34688L38.8005 7.84037L41.567 10.6023L38.8005 13.3642L36.0339 10.6023L34.9694 9.54097L34.026 8.59912L33.5357 8.1088Z" fill="white"/>
</mask>
<g mask="url(#mask1_2623_5707)">
<path d="M17.2729 0.00146484V59.583H62.2582V0.00146484H17.2729Z" fill="url(#paint0_linear_2623_5707)"/>
</g>
</g>
<path d="M7.43548 67.2715V69.5493H2.99157V72.1933H6.91412V74.4649H2.99157V77.3199H7.43548V79.5977H0V67.2715H7.43548Z" fill="white"/>
<path d="M15.5218 76.5007C15.9563 76.0786 16.1735 75.4828 16.1735 74.7132C16.1735 73.9436 15.9563 73.3524 15.5218 72.9381C15.0905 72.5207 14.597 72.3112 14.0384 72.3112C13.4799 72.3112 12.9833 72.5223 12.5489 72.9443C12.1175 73.3664 11.9034 73.9622 11.9034 74.7318C11.9034 75.5014 12.1175 76.0941 12.5489 76.5069C12.9833 76.9212 13.4799 77.1275 14.0384 77.1275C14.597 77.1275 15.0905 76.9196 15.5218 76.5007ZM10.1469 78.3192C9.28576 77.3851 8.85596 76.1888 8.85596 74.7318C8.85596 73.2717 9.28576 72.0723 10.1469 71.132C11.0112 70.1932 12.0648 69.7231 13.3061 69.7231C14.5505 69.7231 15.5063 70.1855 16.1735 71.1072V66.6384H19.1651V79.5978H16.1735V78.1765C15.4489 79.2067 14.4791 79.7219 13.2626 79.7219C12.0492 79.7219 11.0112 79.2548 10.1469 78.3192Z" fill="white"/>
<path d="M27.9928 69.8286H30.9844V79.5978H27.9928V78.164C27.3722 79.1912 26.3853 79.7033 25.0323 79.7033C23.9104 79.7033 23.0027 79.3309 22.3076 78.5861C21.6125 77.8382 21.2649 76.8219 21.2649 75.5387V69.8286H24.244V75.1352C24.244 75.7652 24.4085 76.2509 24.7406 76.5938C25.0757 76.9382 25.535 77.1089 26.1184 77.1089C26.7019 77.1089 27.158 76.9382 27.4901 76.5938C27.8252 76.2509 27.9928 75.7652 27.9928 75.1352V69.8286Z" fill="white"/>
<path d="M33.8081 78.3565C32.9051 77.4472 32.4551 76.2323 32.4551 74.7132C32.4551 73.1957 32.9051 71.9854 33.8081 71.0824C34.7143 70.1762 35.8842 69.7231 37.321 69.7231C38.5127 69.7231 39.5213 70.0195 40.3498 70.6107C41.1769 71.1988 41.7246 72.0413 41.9946 73.1368H38.7548C38.477 72.5533 38.0193 72.2616 37.3831 72.2616C36.7454 72.2616 36.2721 72.4882 35.9618 72.9382C35.6546 73.385 35.5025 73.9778 35.5025 74.7132C35.5025 75.4503 35.6546 76.0445 35.9618 76.4945C36.2721 76.9414 36.7252 77.1648 37.321 77.1648C37.6934 77.1648 37.9851 77.1012 38.1962 76.9724C38.4072 76.8452 38.5934 76.6171 38.7548 76.2897H41.9946C41.7246 77.3417 41.1707 78.1765 40.3312 78.7972C39.4902 79.4147 38.4879 79.7219 37.321 79.7219C35.8842 79.7219 34.7143 79.2673 33.8081 78.3565Z" fill="white"/>
<path d="M49.1869 76.5007C49.6213 76.0787 49.8385 75.4828 49.8385 74.7132C49.8385 73.9436 49.6213 73.3524 49.1869 72.9382C48.7555 72.5208 48.2621 72.3113 47.7035 72.3113C47.1449 72.3113 46.6484 72.5223 46.2139 72.9444C45.7826 73.3664 45.5684 73.9622 45.5684 74.7319C45.5684 75.5015 45.7826 76.0942 46.2139 76.5069C46.6484 76.9212 47.1449 77.1276 47.7035 77.1276C48.2621 77.1276 48.7555 76.9197 49.1869 76.5007ZM43.812 78.3193C42.9508 77.3852 42.521 76.1888 42.521 74.7319C42.521 73.2718 42.9508 72.0723 43.812 71.132C44.6762 70.1933 45.7298 69.7231 46.9711 69.7231C48.2155 69.7231 49.1713 70.1855 49.8385 71.1072V69.8287H52.8301V79.5978H49.8385V78.1765C49.1139 79.2068 48.1442 79.7219 46.9277 79.7219C45.7143 79.7219 44.6762 79.2549 43.812 78.3193Z" fill="white"/>
<path d="M55.0229 79.5979V67.3088H63.0232V69.5804H58.0145V72.2244H61.7633V74.5023H58.0145V79.5979H55.0229Z" fill="white"/>
<path d="M67.3763 68.7238C67.0412 69.0636 66.6269 69.2328 66.135 69.2328C65.6463 69.2328 65.232 69.0636 64.8937 68.7238C64.5539 68.3856 64.3848 67.9697 64.3848 67.4763C64.3848 66.9798 64.5539 66.5624 64.8937 66.2226C65.232 65.8843 65.6463 65.7136 66.135 65.7136C66.6269 65.7136 67.0412 65.8843 67.3763 66.2226C67.7146 66.5624 67.8853 66.9798 67.8853 67.4763C67.8853 67.9697 67.7146 68.3856 67.3763 68.7238ZM64.6516 79.5977V69.8286H67.6432V79.5977H64.6516Z" fill="white"/>
<path d="M72.8251 69.8287V71.2624C73.4411 70.2367 74.4279 69.7231 75.7856 69.7231C76.9059 69.7231 77.812 70.0986 78.5041 70.8465C79.1992 71.5913 79.5468 72.6061 79.5468 73.8878V79.5978H76.5738V74.2912C76.5738 73.6628 76.4063 73.1771 76.0711 72.8326C75.7391 72.4851 75.2829 72.3113 74.6995 72.3113C74.116 72.3113 73.6567 72.4851 73.3216 72.8326C72.9895 73.1771 72.8251 73.6628 72.8251 74.2912V79.5978H69.8335V69.8287H72.8251Z" fill="white"/>
<defs>
<linearGradient id="paint0_linear_2623_5707" x1="16.9034" y1="26.3562" x2="62.7152" y2="26.9987" gradientUnits="userSpaceOnUse">
<stop stop-color="#79CD29"/>
<stop offset="0.00390625" stop-color="#78CD29"/>
<stop offset="0.0078125" stop-color="#77CD29"/>
<stop offset="0.0117188" stop-color="#76CD29"/>
<stop offset="0.015625" stop-color="#75CD2A"/>
<stop offset="0.0195312" stop-color="#74CD2A"/>
<stop offset="0.0234375" stop-color="#73CD2A"/>
<stop offset="0.0273438" stop-color="#72CD2A"/>
<stop offset="0.03125" stop-color="#72CD2A"/>
<stop offset="0.0351563" stop-color="#71CD2A"/>
<stop offset="0.0390625" stop-color="#70CD2A"/>
<stop offset="0.0429687" stop-color="#6FCD2B"/>
<stop offset="0.046875" stop-color="#6ECD2B"/>
<stop offset="0.0507813" stop-color="#6DCD2B"/>
<stop offset="0.0546875" stop-color="#6CCD2B"/>
<stop offset="0.0585938" stop-color="#6BCD2B"/>
<stop offset="0.0625" stop-color="#6ACD2B"/>
<stop offset="0.0664062" stop-color="#69CD2B"/>
<stop offset="0.0703125" stop-color="#68CD2C"/>
<stop offset="0.0742187" stop-color="#67CD2C"/>
<stop offset="0.078125" stop-color="#66CD2C"/>
<stop offset="0.0820313" stop-color="#65CD2C"/>
<stop offset="0.0859375" stop-color="#64CD2C"/>
<stop offset="0.0898438" stop-color="#63CD2C"/>
<stop offset="0.09375" stop-color="#62CD2C"/>
<stop offset="0.0976563" stop-color="#61CD2D"/>
<stop offset="0.101563" stop-color="#60CD2D"/>
<stop offset="0.105469" stop-color="#5FCD2D"/>
<stop offset="0.109375" stop-color="#5ECD2D"/>
<stop offset="0.113281" stop-color="#5DCD2D"/>
<stop offset="0.117188" stop-color="#5CCD2D"/>
<stop offset="0.121094" stop-color="#5BCD2D"/>
<stop offset="0.125" stop-color="#5ACD2E"/>
<stop offset="0.128906" stop-color="#59CD2E"/>
<stop offset="0.132812" stop-color="#58CD2E"/>
<stop offset="0.136719" stop-color="#57CD2E"/>
<stop offset="0.140625" stop-color="#56CD2E"/>
<stop offset="0.144531" stop-color="#55CD2E"/>
<stop offset="0.148437" stop-color="#54CD2E"/>
<stop offset="0.152344" stop-color="#53CD2E"/>
<stop offset="0.15625" stop-color="#52CD2F"/>
<stop offset="0.160156" stop-color="#51CD2F"/>
<stop offset="0.164063" stop-color="#50CC2F"/>
<stop offset="0.167969" stop-color="#4FCC2F"/>
<stop offset="0.171875" stop-color="#4ECC2F"/>
<stop offset="0.175781" stop-color="#4DCC2F"/>
<stop offset="0.179687" stop-color="#4CCC2F"/>
<stop offset="0.183594" stop-color="#4BCC30"/>
<stop offset="0.1875" stop-color="#4ACC30"/>
<stop offset="0.191406" stop-color="#49CC30"/>
<stop offset="0.195312" stop-color="#48CC30"/>
<stop offset="0.199219" stop-color="#47CC30"/>
<stop offset="0.203125" stop-color="#46CC30"/>
<stop offset="0.207031" stop-color="#45CC30"/>
<stop offset="0.210938" stop-color="#44CC31"/>
<stop offset="0.214844" stop-color="#43CC31"/>
<stop offset="0.21875" stop-color="#42CC31"/>
<stop offset="0.222656" stop-color="#41CC31"/>
<stop offset="0.226562" stop-color="#40CC31"/>
<stop offset="0.230469" stop-color="#3FCC31"/>
<stop offset="0.234375" stop-color="#3ECC31"/>
<stop offset="0.238281" stop-color="#3DCC32"/>
<stop offset="0.242187" stop-color="#3CCC32"/>
<stop offset="0.246094" stop-color="#3BCC32"/>
<stop offset="0.25" stop-color="#3ACC32"/>
<stop offset="0.253906" stop-color="#39CC32"/>
<stop offset="0.257813" stop-color="#38CC32"/>
<stop offset="0.261719" stop-color="#37CC32"/>
<stop offset="0.265625" stop-color="#36CC33"/>
<stop offset="0.269531" stop-color="#35CC33"/>
<stop offset="0.273438" stop-color="#34CC33"/>
<stop offset="0.277344" stop-color="#34CC33"/>
<stop offset="0.28125" stop-color="#33CC34"/>
<stop offset="0.285156" stop-color="#33CC34"/>
<stop offset="0.289062" stop-color="#32CB35"/>
<stop offset="0.292969" stop-color="#32CB36"/>
<stop offset="0.296875" stop-color="#32CB37"/>
<stop offset="0.300781" stop-color="#31CA38"/>
<stop offset="0.304688" stop-color="#31CA39"/>
<stop offset="0.308594" stop-color="#31CA3A"/>
<stop offset="0.3125" stop-color="#31CA3B"/>
<stop offset="0.316406" stop-color="#30C93C"/>
<stop offset="0.320312" stop-color="#30C93D"/>
<stop offset="0.324219" stop-color="#30C93D"/>
<stop offset="0.328125" stop-color="#30C83E"/>
<stop offset="0.332031" stop-color="#2FC83F"/>
<stop offset="0.335937" stop-color="#2FC840"/>
<stop offset="0.339844" stop-color="#2FC841"/>
<stop offset="0.34375" stop-color="#2EC742"/>
<stop offset="0.347656" stop-color="#2EC743"/>
<stop offset="0.351563" stop-color="#2EC744"/>
<stop offset="0.355469" stop-color="#2EC645"/>
<stop offset="0.359375" stop-color="#2DC646"/>
<stop offset="0.363281" stop-color="#2DC646"/>
<stop offset="0.367188" stop-color="#2DC647"/>
<stop offset="0.371094" stop-color="#2CC548"/>
<stop offset="0.375" stop-color="#2CC549"/>
<stop offset="0.378906" stop-color="#2CC54A"/>
<stop offset="0.382812" stop-color="#2CC44B"/>
<stop offset="0.386719" stop-color="#2BC44C"/>
<stop offset="0.390625" stop-color="#2BC44D"/>
<stop offset="0.394531" stop-color="#2BC44E"/>
<stop offset="0.398437" stop-color="#2BC34F"/>
<stop offset="0.402344" stop-color="#2AC350"/>
<stop offset="0.40625" stop-color="#2AC350"/>
<stop offset="0.410156" stop-color="#2AC251"/>
<stop offset="0.414062" stop-color="#29C252"/>
<stop offset="0.417969" stop-color="#29C253"/>
<stop offset="0.421875" stop-color="#29C254"/>
<stop offset="0.425781" stop-color="#29C155"/>
<stop offset="0.429688" stop-color="#28C156"/>
<stop offset="0.433594" stop-color="#28C157"/>
<stop offset="0.4375" stop-color="#28C158"/>
<stop offset="0.441406" stop-color="#27C059"/>
<stop offset="0.445312" stop-color="#27C059"/>
<stop offset="0.449219" stop-color="#27C05A"/>
<stop offset="0.453125" stop-color="#27BF5B"/>
<stop offset="0.457031" stop-color="#26BF5C"/>
<stop offset="0.460938" stop-color="#26BF5D"/>
<stop offset="0.464844" stop-color="#26BF5E"/>
<stop offset="0.46875" stop-color="#26BE5F"/>
<stop offset="0.472656" stop-color="#25BE60"/>
<stop offset="0.476562" stop-color="#25BE61"/>
<stop offset="0.480469" stop-color="#25BD62"/>
<stop offset="0.484375" stop-color="#24BD62"/>
<stop offset="0.488281" stop-color="#24BD63"/>
<stop offset="0.492187" stop-color="#24BD64"/>
<stop offset="0.496094" stop-color="#24BC65"/>
<stop offset="0.5" stop-color="#23BC66"/>
<stop offset="0.503906" stop-color="#23BC67"/>
<stop offset="0.507812" stop-color="#23BB68"/>
<stop offset="0.511719" stop-color="#22BB69"/>
<stop offset="0.515625" stop-color="#22BB6A"/>
<stop offset="0.519531" stop-color="#22BB6B"/>
<stop offset="0.523437" stop-color="#22BA6B"/>
<stop offset="0.527344" stop-color="#21BA6C"/>
<stop offset="0.53125" stop-color="#21BA6D"/>
<stop offset="0.535156" stop-color="#21B96E"/>
<stop offset="0.539062" stop-color="#21B96F"/>
<stop offset="0.542969" stop-color="#20B970"/>
<stop offset="0.546875" stop-color="#20B971"/>
<stop offset="0.550781" stop-color="#20B872"/>
<stop offset="0.554687" stop-color="#1FB873"/>
<stop offset="0.558594" stop-color="#1FB874"/>
<stop offset="0.5625" stop-color="#1FB774"/>
<stop offset="0.566406" stop-color="#1FB775"/>
<stop offset="0.570312" stop-color="#1EB776"/>
<stop offset="0.574219" stop-color="#1EB777"/>
<stop offset="0.578125" stop-color="#1EB678"/>
<stop offset="0.582031" stop-color="#1EB679"/>
<stop offset="0.585938" stop-color="#1DB67A"/>
<stop offset="0.589844" stop-color="#1DB67B"/>
<stop offset="0.59375" stop-color="#1DB57C"/>
<stop offset="0.597656" stop-color="#1CB57D"/>
<stop offset="0.601562" stop-color="#1CB57D"/>
<stop offset="0.605469" stop-color="#1CB47E"/>
<stop offset="0.609375" stop-color="#1CB47F"/>
<stop offset="0.613281" stop-color="#1BB480"/>
<stop offset="0.617187" stop-color="#1BB481"/>
<stop offset="0.621094" stop-color="#1BB382"/>
<stop offset="0.625" stop-color="#1AB383"/>
<stop offset="0.628906" stop-color="#1AB384"/>
<stop offset="0.632812" stop-color="#1AB285"/>
<stop offset="0.636719" stop-color="#1AB286"/>
<stop offset="0.640625" stop-color="#19B286"/>
<stop offset="0.644531" stop-color="#19B287"/>
<stop offset="0.648438" stop-color="#19B188"/>
<stop offset="0.652344" stop-color="#19B189"/>
<stop offset="0.65625" stop-color="#18B18A"/>
<stop offset="0.660156" stop-color="#18B08B"/>
<stop offset="0.664062" stop-color="#18B08C"/>
<stop offset="0.667969" stop-color="#17B08D"/>
<stop offset="0.671875" stop-color="#17B08E"/>
<stop offset="0.675781" stop-color="#17AF8F"/>
<stop offset="0.679688" stop-color="#17AF8F"/>
<stop offset="0.683594" stop-color="#16AF90"/>
<stop offset="0.6875" stop-color="#16AE91"/>
<stop offset="0.691406" stop-color="#16AE92"/>
<stop offset="0.695312" stop-color="#15AE93"/>
<stop offset="0.699219" stop-color="#15AE94"/>
<stop offset="0.703125" stop-color="#15AD95"/>
<stop offset="0.707031" stop-color="#15AD96"/>
<stop offset="0.710937" stop-color="#14AD97"/>
<stop offset="0.714844" stop-color="#14AC98"/>
<stop offset="0.71875" stop-color="#14AC99"/>
<stop offset="0.722656" stop-color="#14AC99"/>
<stop offset="0.726562" stop-color="#13AC9A"/>
<stop offset="0.730469" stop-color="#13AB9B"/>
<stop offset="0.734375" stop-color="#13AB9C"/>
<stop offset="0.738281" stop-color="#12AB9D"/>
<stop offset="0.742188" stop-color="#12AA9E"/>
<stop offset="0.746094" stop-color="#12AA9F"/>
<stop offset="0.75" stop-color="#12AAA0"/>
<stop offset="0.753906" stop-color="#11AAA1"/>
<stop offset="0.757812" stop-color="#11A9A2"/>
<stop offset="0.761719" stop-color="#11A9A2"/>
<stop offset="0.765625" stop-color="#10A9A3"/>
<stop offset="0.769531" stop-color="#10A9A4"/>
<stop offset="0.773438" stop-color="#10A8A5"/>
<stop offset="0.777344" stop-color="#10A8A6"/>
<stop offset="0.78125" stop-color="#0FA8A7"/>
<stop offset="0.785156" stop-color="#0FA7A8"/>
<stop offset="0.789062" stop-color="#0FA7A9"/>
<stop offset="0.792969" stop-color="#0FA7AA"/>
<stop offset="0.796875" stop-color="#0EA7AB"/>
<stop offset="0.800781" stop-color="#0EA6AB"/>
<stop offset="0.804688" stop-color="#0EA6AC"/>
<stop offset="0.808594" stop-color="#0DA6AD"/>
<stop offset="0.8125" stop-color="#0DA5AE"/>
<stop offset="0.816406" stop-color="#0DA5AF"/>
<stop offset="0.820312" stop-color="#0DA5B0"/>
<stop offset="0.824219" stop-color="#0CA5B1"/>
<stop offset="0.828125" stop-color="#0CA4B2"/>
<stop offset="0.832031" stop-color="#0CA4B3"/>
<stop offset="0.835938" stop-color="#0CA4B4"/>
<stop offset="0.839844" stop-color="#0BA3B4"/>
<stop offset="0.84375" stop-color="#0BA3B5"/>
<stop offset="0.847656" stop-color="#0BA3B6"/>
<stop offset="0.851562" stop-color="#0AA3B7"/>
<stop offset="0.855469" stop-color="#0AA2B8"/>
<stop offset="0.859375" stop-color="#0AA2B9"/>
<stop offset="0.863281" stop-color="#0AA2BA"/>
<stop offset="0.867188" stop-color="#09A1BB"/>
<stop offset="0.871094" stop-color="#09A1BC"/>
<stop offset="0.875" stop-color="#09A1BD"/>
<stop offset="0.878906" stop-color="#08A1BD"/>
<stop offset="0.882812" stop-color="#08A0BE"/>
<stop offset="0.886719" stop-color="#08A0BF"/>
<stop offset="0.890625" stop-color="#08A0C0"/>
<stop offset="0.894531" stop-color="#079FC1"/>
<stop offset="0.898438" stop-color="#079FC2"/>
<stop offset="0.902344" stop-color="#079FC3"/>
<stop offset="0.90625" stop-color="#079FC4"/>
<stop offset="0.910156" stop-color="#069EC5"/>
<stop offset="0.914062" stop-color="#069EC6"/>
<stop offset="0.917969" stop-color="#069EC6"/>
<stop offset="0.921875" stop-color="#059DC7"/>
<stop offset="0.925781" stop-color="#059DC8"/>
<stop offset="0.929688" stop-color="#059DC9"/>
<stop offset="0.933594" stop-color="#059DCA"/>
<stop offset="0.9375" stop-color="#049CCB"/>
<stop offset="0.941406" stop-color="#049CCC"/>
<stop offset="0.945312" stop-color="#049CCD"/>
<stop offset="0.949219" stop-color="#039CCE"/>
<stop offset="0.953125" stop-color="#039BCF"/>
<stop offset="0.957031" stop-color="#039BCF"/>
<stop offset="0.960938" stop-color="#039BD0"/>
<stop offset="0.964844" stop-color="#029AD1"/>
<stop offset="0.96875" stop-color="#029AD2"/>
<stop offset="0.972656" stop-color="#029AD3"/>
<stop offset="0.976563" stop-color="#029AD4"/>
<stop offset="0.980469" stop-color="#0199D5"/>
<stop offset="0.984375" stop-color="#0199D6"/>
<stop offset="0.988281" stop-color="#0199D7"/>
<stop offset="0.992188" stop-color="#0098D8"/>
<stop offset="0.996094" stop-color="#0098D8"/>
<stop offset="1" stop-color="#0098D9"/>
</linearGradient>
</defs>
</svg>
